<svg width="36" height="39" viewBox="0 0 36 39" fill="none" xmlns="http://www.w3.org/2000/svg">
<path d="M11.6 30.8C11 30 10.4 28.6 9.19999 26.8C8.59999 25.8 6.79999 23.8 6.19999 23C5.79999 22.2 5.79999 21.8 5.99999 21C6.19999 19.8 7.39999 18.8 8.79999 18.8C9.79999 18.8 10.8 19.6 11.6 20.2C12 20.6 12.6 21.4 13 21.8C13.4 22.2 13.4 22.4 13.8 22.8C14.2 23.4 14.4 23.8 14.2 23C14 22 13.8 20.4 13.4 18.8C13.2 17.6 13 17.4 12.8 16.6C12.6 15.6 12.4 15 12.2 14C12 13.4 11.8 11.8 11.6 11C11.4 10 11.4 8.2 12.2 7.4C12.8 6.8 14 6.6 14.8 7C15.8 7.6 16.4 9 16.6 9.6C17 10.6 17.4 12 17.6 13.6C18 15.6 18.6 18.6 18.6 19.2C18.6 18.4 18.4 17 18.6 16.2C18.8 15.6 19.2 14.8 20 14.6C20.6 14.4 21.2 14.4 21.8 14.4C22.4 14.6 23 15 23.4 15.4C24.2 16.6 24.2 19.2 24.2 19C24.4 18.2 24.4 16.6 24.8 15.8C25 15.4 25.8 15 26.2 14.8C26.8 14.6 27.6 14.6 28.2 14.8C28.6 14.8 29.4 15.4 29.6 15.8C30 16.4 30.2 18.4 30.4 19.2C30.4 19.4 30.6 18.4 31 17.8C31.8 16.6 34.6 16.2 34.8 19C34.8 20.4 34.8 20.2 34.8 21.2C34.8 22.2 34.8 22.8 34.8 23.6C34.8 24.4 34.6 26.2 34.4 27C34.2 27.6 33.6 29 33 29.8C33 29.8 30.8 32.2 30.6 33.4C30.4 34.6 30.4 34.6 30.4 35.4C30.4 36.2 30.6 37.2 30.6 37.2C30.6 37.2 29 37.4 28.2 37.2C27.4 37 26.4 35.6 26.2 35C25.8 34.4 25.2 34.4 24.8 35C24.4 35.8 23.4 37.2 22.6 37.2C21.2 37.4 18.4 37.2 16.4 37.2C16.4 37.2 16.8 35.2 16 34.4C15.4 33.8 14.4 32.8 13.8 32.2L11.6 30.8Z" fill="white" stroke="black" stroke-width="1.5"/>
<path d="M28.2 31.4V24.6" stroke="black" stroke-width="1.5" stroke-linecap="round"/>
<path d="M24.2 31.4L24 24.6" stroke="black" stroke-width="1.5" stroke-linecap="round"/>
<path d="M20.2 24.6V31.4" stroke="black" stroke-width="1.5" stroke-linecap="round"/>
<path d="M12.375 10.4375C11.4631 8.80577 11.4528 4.28537 11.6875 2.25C13.6164 3.75 15.8125 7.88216 15.8125 9.5625C15.8125 11.75 13.5625 12.5625 12.375 10.4375Z" fill="#FF2020" stroke="black" stroke-width="1.5"/>
<path d="M9 22C9.4 23.2 9 25 7.5 24.5C7.5 24.5 4 22 2.0625 17.625C4.56251 17.625 8.6 20.8 9 22Z" fill="#FF2020" stroke="black" stroke-width="1.5"/>
</svg>
