<svg width="18" height="20" viewBox="0 0 18 20" fill="none" xmlns="http://www.w3.org/2000/svg">
<path d="M5.83162 15.5261C5.5316 15.1261 5.23157 14.426 4.63153 13.5259C4.3315 13.0259 3.43143 12.0258 3.13141 11.6258C2.9314 11.2258 2.9314 11.0258 3.0314 10.6257C3.13141 10.0257 3.73146 9.52564 4.43151 9.52564C4.93155 9.52564 5.43159 9.92567 5.83162 10.2257C6.03163 10.4257 6.33166 10.8257 6.53167 11.0258C6.73169 11.2258 6.73169 11.3258 6.9317 11.5258C7.13172 11.8258 7.23173 12.0258 7.13172 11.6258C7.03171 11.1258 6.9317 10.3257 6.73169 9.52564C6.63168 8.92559 6.53167 8.82558 6.43166 8.42555C6.33166 7.92552 6.23165 7.62549 6.13164 7.12545C6.03163 6.82543 5.93163 6.02537 5.83162 5.62534C5.73161 5.1253 5.73161 4.22523 6.13164 3.8252C6.43166 3.52518 7.03171 3.42517 7.43174 3.62519C7.93178 3.92521 8.2318 4.62526 8.33181 4.92529C8.53183 5.42532 8.73184 6.12538 8.83185 6.92544C9.03186 7.92552 9.33189 9.42563 9.33189 9.72565C9.33189 9.32562 9.23188 8.62557 9.33189 8.22554C9.43189 7.92552 9.63191 7.52548 10.0319 7.42548C10.332 7.32547 10.632 7.32547 10.932 7.32547C11.232 7.42548 11.5321 7.62549 11.7321 7.82551C12.1321 8.42555 12.1321 9.72565 12.1321 9.62565C12.2321 9.22562 12.2321 8.42555 12.4321 8.02552C12.5321 7.82551 12.9322 7.62549 13.1322 7.52548C13.4322 7.42548 13.8322 7.42548 14.1323 7.52548C14.3323 7.52548 14.7323 7.82551 14.8323 8.02552C15.0323 8.32555 15.1323 9.32562 15.2323 9.72565C15.2323 9.82566 15.3323 9.32562 15.5324 9.0256C15.9324 8.42555 17.3325 8.22554 17.4325 9.62565C17.4325 10.3257 17.4325 10.2257 17.4325 10.7257C17.4325 11.2258 17.4325 11.5258 17.4325 11.9258C17.4325 12.3259 17.3325 13.2259 17.2325 13.626C17.1325 13.926 16.8325 14.626 16.5324 15.0261C16.5324 15.0261 15.4324 16.2262 15.3323 16.8262C15.2323 17.4262 15.2323 17.4262 15.2323 17.8263C15.2323 18.2263 15.3323 18.7263 15.3323 18.7263C15.3323 18.7263 14.5323 18.8264 14.1323 18.7263C13.7322 18.6263 13.2322 17.9263 13.1322 17.6263C12.9322 17.3262 12.6321 17.3262 12.4321 17.6263C12.2321 18.0263 11.7321 18.7263 11.332 18.7263C10.632 18.8264 9.23188 18.7263 8.2318 18.7263C8.2318 18.7263 8.43182 17.7263 8.03179 17.3262C7.73176 17.0262 7.23173 16.5262 6.9317 16.2262L5.83162 15.5261Z" fill="white" stroke="black" stroke-width="0.75"/>
<path d="M14.1322 15.8261V12.4259" stroke="black" stroke-width="0.75" stroke-linecap="round"/>
<path d="M12.1321 15.8261L12.0321 12.4259" stroke="black" stroke-width="0.75" stroke-linecap="round"/>
<path d="M10.1319 12.4259V15.8261" stroke="black" stroke-width="0.75" stroke-linecap="round"/>
<path d="M6.21914 5.34406C5.76318 4.52814 5.758 2.26776 5.87537 1.25C6.83991 2.00006 7.93803 4.0663 7.93803 4.90653C7.93803 6.00036 6.81294 6.40665 6.21914 5.34406Z" fill="#FF2020" stroke="black" stroke-width="0.75"/>
<path d="M4.53152 11.1258C4.73153 11.7258 4.53152 12.6259 3.78146 12.3759C3.78146 12.3759 2.03132 11.1258 1.0625 8.93809C2.3126 8.93809 4.3315 10.5257 4.53152 11.1258Z" fill="#FF2020" stroke="black" stroke-width="0.75"/>
</svg>
